# xmcd
#
# Track frame offsets: 
#        150
#        15850
#        42587
#        64782
#        87545
#        119160
#        137870
#        161715
#        181592
#        203882
#        227982
#        246097
#
# Disc length: 3580 seconds
#
# Revision: 18
# Processed by: cddbd v1.5.2PL0 Copyright (c) Steve Scherf et al.
# Submitted via: ExactAudioCopyFreeDBPlugin 1.0
#
DISCID=a80dfa0c
DTITLE=Etta James - The Perfect Blues Collection [disc 24] Etta James^
DTITLE=Life, Love and the Blues
DYEAR=2011
DGENRE=Blues
TTITLE0=Born Under a Bad Sign
TTITLE1=I Want to Ta Ta You Baby
TTITLE2=Here I Am (Come and Take Me)
TTITLE3=Running Out of Lies
TTITLE4=Inner City Blues (Make Me Wanna Holler)
TTITLE5=Spoonful
TTITLE6=Life, Love and the Blues
TTITLE7=Hoochie Coochie Gal
TTITLE8=Cheatin' in the Next Room
TTITLE9=If You Want Me to Stay
TTITLE10=The Love You Save (May Be Your Own)
TTITLE11=I'll Take Care of You
EXTD=
EXTT0=
EXTT1=
EXTT2=
EXTT3=
EXTT4=
EXTT5=
EXTT6=
EXTT7=
EXTT8=
EXTT9=
EXTT10=
EXTT11=
PLAYORDER=
